<?xml version="1.0" encoding="UTF-8"?>
<svg version="1.1" xmlns="http://www.w3.org/2000/svg" width="512" height="512">
<path d="M0 0 C2.15669849 -0.00217531 4.31287467 -0.02035665 6.46948242 -0.03930664 C38.89337318 -0.17252244 71.18539042 9.98232766 95.9909668 31.18530273 C96.50498047 31.62100586 97.01899414 32.05670898 97.54858398 32.50561523 C123.52254097 54.75506618 139.6313884 87.14254737 142.79467773 121.20874023 C143.20727027 127.46536732 143.23492916 133.73002196 143.2409668 139.99780273 C143.24197388 140.72596191 143.24298096 141.45412109 143.24401855 142.2043457 C143.2326412 154.41425991 142.42377089 166.19264305 139.9909668 178.18530273 C139.84643066 178.92055176 139.70189453 179.65580078 139.55297852 180.41333008 C130.99869458 222.90055427 109.07877725 262.56651568 80.9909668 295.18530273 C80.36319336 295.93038086 79.73541992 296.67545898 79.08862305 297.44311523 C77.42249844 299.39032199 75.71750577 301.2913418 73.9909668 303.18530273 C73.52190918 303.70334473 73.05285156 304.22138672 72.56958008 304.75512695 C61.01134824 317.49413285 61.01134824 317.49413285 54.9128418 322.57202148 C52.72047272 324.41236382 50.64822297 326.35964892 48.5534668 328.31030273 C32.25402289 343.05377469 32.25402289 343.05377469 23.9909668 347.18530273 C24.0631543 348.1456543 24.1353418 349.10600586 24.2097168 350.09545898 C27.08492667 391.09778697 23.15598892 433.87099314 -4.6887207 466.37670898 C-8.652741 470.79359214 -12.79972495 475.00297722 -17.0090332 479.18530273 C-17.91202148 480.10182617 -17.91202148 480.10182617 -18.83325195 481.03686523 C-43.78027643 504.78099335 -79.74148334 512.67139465 -113.1340332 512.49780273 C-113.85003693 512.49631226 -114.56604065 512.49482178 -115.30374146 512.49328613 C-127.41098952 512.44822965 -139.12263749 511.55147074 -151.0090332 509.18530273 C-151.77135254 509.0407666 -152.53367188 508.89623047 -153.3190918 508.74731445 C-200.55460398 499.67399654 -249.87709201 475.03422346 -283.29418945 439.93530273 C-285.09147753 438.1011682 -286.98278437 436.46398596 -288.9465332 434.81030273 C-293.75270804 430.67322283 -297.85125773 425.95955233 -302.0090332 421.18530273 C-302.54222168 420.58500244 -303.07541016 419.98470215 -303.62475586 419.36621094 C-342.11221054 375.87549326 -369.20054337 318.07419347 -369.19433594 259.37670898 C-369.19650868 257.08615127 -369.21467845 254.79608731 -369.23364258 252.50561523 C-369.36094951 219.60520167 -360.08829168 188.6257871 -339.0090332 163.18530273 C-338.06350586 162.02708008 -338.06350586 162.02708008 -337.09887695 160.84545898 C-314.85348399 134.44489012 -280.83878133 121.68303199 -247.30371094 118.34423828 C-242.70734705 118.02588177 -238.11488853 117.99483886 -233.5090332 117.99780273 C-232.46618164 117.9971582 -231.42333008 117.99651367 -230.34887695 117.99584961 C-221.4576497 118.05585176 -212.79181653 118.84879223 -204.0090332 120.18530273 C-203.76024414 119.63745117 -203.51145508 119.08959961 -203.25512695 118.52514648 C-196.2398201 105.35220351 -184.40967492 93.65511793 -174.3215332 82.81030273 C-173.71615723 82.15642578 -173.11078125 81.50254883 -172.48706055 80.82885742 C-168.78070005 76.88651894 -164.91249734 73.253835 -160.80615234 69.73071289 C-158.6736638 67.89690601 -156.62695425 65.97973184 -154.5715332 64.06030273 C-118.37711636 31.43513501 -71.37744445 8.07466034 -23.0090332 1.18530273 C-22.05540894 1.04064575 -22.05540894 1.04064575 -21.08251953 0.89306641 C-14.08243671 -0.03955822 -7.04862301 -0.0007926 0 0 Z M-31.0090332 34.18530273 C-31.75975098 34.35690918 -32.51046875 34.52851562 -33.28393555 34.70532227 C-50.77625243 38.7520253 -67.33934841 44.80673887 -83.19506836 53.2253418 C-84.90936648 54.13255852 -86.63660739 55.01519505 -88.36450195 55.89624023 C-109.55131814 66.88964303 -129.51433724 81.93126015 -146.0090332 99.18530273 C-148.5274133 101.72041626 -151.06131532 104.23617816 -153.62231445 106.72827148 C-164.04796095 116.29226057 -164.04796095 116.29226057 -171.0090332 128.18530273 C-170.33138916 128.43586426 -169.65374512 128.68642578 -168.95556641 128.94458008 C-135.41626228 141.41472014 -104.87821525 156.90997735 -77.46606445 180.18530273 C-74.41090743 182.67217141 -71.2312181 184.91915072 -68.0090332 187.18530273 C-67.74276123 186.36030273 -67.47648926 185.53530273 -67.20214844 184.68530273 C-49.57343502 130.30070288 -20.52692219 84.72078597 31.66870117 57.80444336 C40.94485562 53.176158 50.33004593 48.94561063 59.9909668 45.18530273 C44.63143679 33.38086352 21.85585727 30.95158955 3.1784668 30.93530273 C2.48466919 30.93462799 1.79087158 30.93395325 1.0760498 30.93325806 C-9.88629745 30.95018014 -20.3261323 31.6191032 -31.0090332 34.18530273 Z M73.8659668 72.68530273 C73.22881744 72.91216766 72.59166809 73.13903259 71.93521118 73.37277222 C61.89876179 76.96758519 52.27123294 80.90948285 42.9909668 86.18530273 C42.34885254 86.54479004 41.70673828 86.90427734 41.04516602 87.2746582 C32.79010343 91.93037615 25.15946023 96.94605845 17.9909668 103.18530273 C17.18401367 103.88268555 16.37706055 104.58006836 15.5456543 105.29858398 C-14.05269268 131.41750146 -31.02328771 162.84845953 -40.0090332 201.18530273 C-40.22906006 202.11109131 -40.44908691 203.03687988 -40.67578125 203.99072266 C-40.96449097 205.29360229 -40.96449097 205.29360229 -41.2590332 206.62280273 C-41.51426758 207.76555664 -41.51426758 207.76555664 -41.7746582 208.93139648 C-42.15771723 212.61514741 -41.69972272 215.30852939 -39.3996582 218.22827148 C-38.69325195 218.9359668 -37.9868457 219.64366211 -37.2590332 220.37280273 C-25.10566191 233.41215672 -15.8040327 248.76384664 -7.0090332 264.18530273 C-6.60201172 264.88945312 -6.19499023 265.59360352 -5.77563477 266.3190918 C2.92149396 281.4752784 8.91096835 297.84775852 14.9909668 314.18530273 C26.18748816 307.8075374 35.23794057 298.14245444 44.3034668 289.12280273 C45.23408936 288.20136475 46.16471191 287.27992676 47.12353516 286.33056641 C52.85075266 280.57774668 58.06585163 274.63493654 62.9909668 268.18530273 C63.85902954 267.0678064 63.85902954 267.0678064 64.74462891 265.92773438 C73.52326247 254.55212508 81.17958449 242.83342601 87.9909668 230.18530273 C88.35915527 229.50935059 88.72734375 228.83339844 89.10668945 228.13696289 C98.09248264 211.49399909 104.65914882 193.58293666 108.9909668 175.18530273 C109.15467773 174.52159668 109.31838867 173.85789062 109.48706055 173.17407227 C117.22944743 140.66084634 112.31866513 104.72733167 94.9909668 76.18530273 C92.23954595 71.99008809 92.23954595 71.99008809 88.9909668 68.18530273 C83.88881445 68.18530273 78.64920878 70.98206418 73.8659668 72.68530273 Z M-303.0090332 172.18530273 C-296.73844511 203.68212791 -279.6363172 230.99503855 -258.0090332 254.18530273 C-257.27297852 254.98709961 -256.53692383 255.78889648 -255.77856445 256.61499023 C-231.30903571 282.27315605 -198.66908847 295.40962238 -164.9465332 303.68530273 C-127.66563406 312.85408008 -95.87132285 329.5894808 -68.0090332 356.18530273 C-66.72899414 357.38606445 -66.72899414 357.38606445 -65.4230957 358.61108398 C-45.94552742 377.38205278 -31.73502031 401.34944536 -21.84350586 426.32275391 C-20.95201962 428.45067613 -20.95201962 428.45067613 -19.0090332 431.18530273 C-12.7877747 420.17235151 -8.87202616 407.6846857 -7.0090332 395.18530273 C-6.89817383 394.47245117 -6.78731445 393.75959961 -6.6730957 393.02514648 C0.03314254 340.19086412 -23.60970884 287.97187849 -55.04418945 246.99780273 C-56.03083095 245.72569592 -57.0190136 244.4547823 -58.0090332 243.18530273 C-58.81211914 242.15405273 -59.61520508 241.12280273 -60.44262695 240.06030273 C-66.53799199 232.57031818 -73.27002905 225.71806108 -80.0715332 218.87280273 C-80.99369629 217.94129395 -81.91585937 217.00978516 -82.8659668 216.05004883 C-88.61852841 210.32413368 -94.56201782 205.11187663 -101.0090332 200.18530273 C-101.73807861 199.617229 -102.46712402 199.04915527 -103.21826172 198.46386719 C-134.65066531 174.11954734 -171.31927067 155.76262231 -211.0090332 150.18530273 C-211.77731445 150.07444336 -212.5455957 149.96358398 -213.3371582 149.84936523 C-244.28151955 146.24892068 -278.7641404 151.20450256 -303.0090332 172.18530273 Z M-327.0090332 201.18530273 C-339.18561065 229.43496241 -342.27421494 262.08233916 -335.0090332 292.18530273 C-334.67838867 293.58208252 -334.67838867 293.58208252 -334.34106445 295.00708008 C-327.1855235 324.41010648 -314.69139675 352.57899014 -297.0090332 377.18530273 C-295.90108398 378.73411133 -295.90108398 378.73411133 -294.77075195 380.31420898 C-292.5680686 383.31502271 -290.30949294 386.25886755 -288.0090332 389.18530273 C-287.27168945 390.12889648 -286.5343457 391.07249023 -285.7746582 392.04467773 C-272.84228028 407.94244168 -257.76400164 423.33752598 -241.0090332 435.18530273 C-240.40494629 435.62310059 -239.80085938 436.06089844 -239.1784668 436.51196289 C-209.03022223 458.32642088 -174.10328787 474.9041903 -137.0090332 480.18530273 C-136.01009033 480.334552 -136.01009033 480.334552 -134.9909668 480.48681641 C-127.77111019 481.43644463 -120.52972868 481.36918907 -113.2590332 481.37280273 C-111.97770508 481.38504883 -110.69637695 481.39729492 -109.3762207 481.40991211 C-92.02501958 481.43630846 -75.78405424 478.15842406 -60.0715332 470.81030273 C-59.29084473 470.44735107 -58.51015625 470.08439941 -57.70581055 469.71044922 C-52.32470405 467.09573476 -47.66927403 463.92907457 -43.0090332 460.18530273 C-44.24505185 453.96007916 -45.91922724 448.06843158 -48.1340332 442.12280273 C-48.43897705 441.30279785 -48.7439209 440.48279297 -49.05810547 439.63793945 C-57.5956607 417.22766894 -70.59490805 397.59778255 -87.0090332 380.18530273 C-87.98163086 379.11602539 -87.98163086 379.11602539 -88.97387695 378.02514648 C-113.26200151 352.33847349 -146.2508072 338.8739453 -179.91436768 330.75350952 C-205.84834206 324.49237299 -230.32343002 315.09626937 -252.0090332 299.18530273 C-252.53400391 298.80019531 -253.05897461 298.41508789 -253.59985352 298.01831055 C-261.10130648 292.47681542 -268.23885752 286.60723942 -275.0090332 280.18530273 C-275.49839355 279.72849121 -275.98775391 279.27167969 -276.49194336 278.80102539 C-297.86868846 258.74243523 -312.68947696 233.90511943 -323.7824707 206.97827148 C-324.96864965 204.05811547 -324.96864965 204.05811547 -327.0090332 201.18530273 Z " fill="#000000" transform="translate(369.009033203125,-0.185302734375)"/>
</svg>
